# xmcd CD database file
# 
# Track frame offsets:
# 150
# 12762
# 26420
# 47272
# 64075
# 83137
# 95452
# 107627
# 121402
# 133670
# 
# Disc length: 2010 seconds
#
# 
# Revision: 0
# Processed by: cddbd v1.4b41PL1 Copyright (c) Steve Scherf et al.
# Submitted via: SuperSonic v3.0
# 
DISCID=7307d80a
DTITLE=KENNY ROGERS - CHRISTMAS WITH KENNY ROGERS
DYEAR=1900
DGENRE=
TTITLE0=WHITE CHRISTMAS
TTITLE1=MY FAVORITE THINGS
TTITLE2=O HOLY NIGHT
TTITLE3=CHRISTMAS EVERYDAY
TTITLE4=KENTUCKY HOMEMADE CHRISTMAS
TTITLE5=CAROL OF THE BELLS
TTITLE6=KIDS
TTITLE7=SWEET LITTLE JESUS BOY
TTITLE8=CHRISTMAS IS MY FAVORITE TIME OF YEAR
TTITLE9=WHEN A CHILD IS BORN
EXTD=
EXTT0=
EXTT1=
EXTT2=
EXTT3=
EXTT4=
EXTT5=
EXTT6=
EXTT7=
EXTT8=
EXTT9=
PLAYORDER=
